<?xml version="1.0" encoding="utf-8"?><!-- Uploaded to: SVG Repo, www.svgrepo.com, Generator: SVG Repo Mixer Tools -->
<svg fill="#000000" width="800px" height="800px" viewBox="0 0 24 24" id="departure" data-name="Flat Color" xmlns="http://www.w3.org/2000/svg" class="icon flat-color"><path id="primary" d="M21.86,8.34l-.24-.56A4.69,4.69,0,0,0,17.33,5a5.44,5.44,0,0,0-2.74.8L7.33,10.34l-.76-.53a2.09,2.09,0,0,0-2.29-.05L2.47,10.9a1,1,0,0,0-.46.71,1,1,0,0,0,.25.81l3.58,3.92a2.07,2.07,0,0,0,2.41.46l2-1-.24,2a1,1,0,0,0,.47,1A1,1,0,0,0,11,19a1,1,0,0,0,.55-.17L14.29,17a2,2,0,0,0,.76-.94L16.25,13l4.63-2.21A1.9,1.9,0,0,0,21.86,8.34Z" style="fill: rgb(0, 0, 0);"></path></svg>